<?xml version="1.0" encoding="utf-8"?>
<!-- Generator: Adobe Illustrator 16.0.0, SVG Export Plug-In . SVG Version: 6.00 Build 0)  -->
<!DOCTYPE svg PUBLIC "-//W3C//DTD SVG 1.1//EN" "http://www.w3.org/Graphics/SVG/1.1/DTD/svg11.dtd">
<svg version="1.1" id="Layer_1" xmlns="http://www.w3.org/2000/svg" xmlns:xlink="http://www.w3.org/1999/xlink" x="0px" y="0px"
	 width="47.9995117px" height="47.9995117px" viewBox="0 0 47.9995117 47.9995117"
	 style="enable-background:new 0 0 47.9995117 47.9995117;" xml:space="preserve">
<style type="text/css">
<![CDATA[
	.st0{fill:#888888;}
]]>
</style>
<g>
	<polygon class="st0" points="11.7109375,21.8657227 11.7109375,26.1342773 14.9018555,24 	"/>
	<polygon class="st0" points="22.7246094,18.7675781 22.7246094,12.8193359 12.7319336,19.4804688 17.1958008,22.4663086 	"/>
	<polygon class="st0" points="35.2680664,19.4804688 25.2749023,12.8193359 25.2749023,18.7675781 30.8041992,22.4663086 	"/>
	<polygon class="st0" points="12.7319336,28.5200195 22.7246094,35.1811523 22.7246094,29.2329102 17.1958008,25.5351562 	"/>
	<polygon class="st0" points="25.2749023,29.2329102 25.2749023,35.1811523 35.2680664,28.5200195 30.8041992,25.5351562 	"/>
	<polygon class="st0" points="23.9995117,20.9829102 19.4892578,24 23.9995117,27.0175781 28.5112305,24 	"/>
	<path class="st0" d="M23.9995117,0C10.7456055,0,0,10.7451172,0,24c0,13.2553711,10.7456055,23.9995117,23.9995117,23.9995117
		c13.2558594,0,24-10.7441406,24-23.9995117C47.9995117,10.7451172,37.2553711,0,23.9995117,0z M38.8393555,28.5219727
		c0,0.0556641-0.0039062,0.1113281-0.0117188,0.1669922c-0.0019531,0.0175781-0.0068359,0.0361328-0.0097656,0.0546875
		c-0.0068359,0.0351562-0.0126953,0.0712891-0.0224609,0.1064453c-0.0048828,0.0214844-0.0126953,0.0419922-0.0195312,0.0615234
		c-0.0107422,0.03125-0.0205078,0.0625-0.0332031,0.09375c-0.0087891,0.0214844-0.0185547,0.0419922-0.0283203,0.0615234
		c-0.0136719,0.0292969-0.0273438,0.0576172-0.0429688,0.0859375c-0.0117188,0.0195312-0.0244141,0.0390625-0.0371094,0.0585938
		c-0.0166016,0.0263672-0.0341797,0.0517578-0.0537109,0.0771484c-0.0136719,0.0195312-0.0283203,0.0371094-0.0439453,0.0546875
		c-0.0195312,0.0234375-0.0410156,0.046875-0.0634766,0.0693359c-0.0166016,0.0166016-0.0332031,0.0341797-0.0507812,0.0498047
		c-0.0224609,0.0205078-0.046875,0.0410156-0.0722656,0.0605469c-0.0185547,0.0146484-0.0371094,0.0302734-0.0576172,0.0439453
		c-0.0068359,0.0048828-0.0136719,0.0107422-0.0214844,0.015625l-13.5634766,9.0429688
		c-0.2138672,0.1425781-0.4609375,0.2148438-0.7080078,0.2148438c-0.2460938,0-0.4926758-0.0722656-0.7070312-0.2148438
		L9.7285156,29.5825195c-0.0073242-0.0048828-0.0136719-0.0107422-0.0209961-0.015625
		C9.6875,29.5532227,9.668457,29.5375977,9.6499023,29.5229492C9.625,29.503418,9.6005859,29.4829102,9.5776367,29.4624023
		c-0.0175781-0.015625-0.0341797-0.0332031-0.0512695-0.0498047c-0.0219727-0.0224609-0.0429688-0.0458984-0.0634766-0.0693359
		c-0.0146484-0.0175781-0.0297852-0.0351562-0.0439453-0.0546875c-0.0185547-0.0253906-0.0366211-0.0507812-0.0532227-0.0771484
		c-0.0131836-0.0195312-0.0249023-0.0390625-0.0366211-0.0585938c-0.015625-0.0283203-0.0297852-0.0566406-0.043457-0.0859375
		c-0.0097656-0.0195312-0.0195312-0.0400391-0.0283203-0.0615234c-0.0126953-0.03125-0.0234375-0.0625-0.0332031-0.09375
		c-0.0068359-0.0195312-0.0136719-0.0400391-0.0195312-0.0615234c-0.0097656-0.0351562-0.015625-0.0712891-0.0224609-0.1064453
		c-0.0029297-0.0185547-0.0078125-0.0371094-0.0102539-0.0546875c-0.0073242-0.0556641-0.0117188-0.1113281-0.0117188-0.1669922
		v-9.0429688c0-0.0566406,0.0043945-0.1118164,0.0117188-0.1665039c0.0024414-0.0185547,0.0073242-0.0366211,0.0102539-0.0556641
		c0.0068359-0.0356445,0.0126953-0.0717773,0.0224609-0.1069336c0.0058594-0.0209961,0.0126953-0.0410156,0.0195312-0.0615234
		c0.0097656-0.03125,0.0205078-0.0625,0.0332031-0.0927734c0.0087891-0.0209961,0.0185547-0.0419922,0.0283203-0.0625
		c0.0136719-0.0288086,0.027832-0.0571289,0.043457-0.0844727c0.0117188-0.0200195,0.0234375-0.0395508,0.0366211-0.059082
		c0.0166016-0.0263672,0.034668-0.0522461,0.0532227-0.0771484c0.0141602-0.019043,0.0292969-0.0375977,0.0439453-0.0556641
		c0.0205078-0.0234375,0.0415039-0.046875,0.0634766-0.0688477c0.0170898-0.0170898,0.0336914-0.0341797,0.0512695-0.0498047
		C9.6005859,18.5170898,9.625,18.496582,9.6499023,18.4770508c0.0185547-0.0146484,0.0375977-0.0292969,0.0576172-0.043457
		c0.0073242-0.0048828,0.0136719-0.0112305,0.0209961-0.015625L23.2924805,9.375
		c0.4287109-0.2856445,0.9863281-0.2856445,1.4150391,0l13.5634766,9.0429688
		c0.0078125,0.0043945,0.0146484,0.0107422,0.0214844,0.015625c0.0205078,0.0141602,0.0390625,0.0288086,0.0576172,0.043457
		c0.0253906,0.0195312,0.0498047,0.0400391,0.0722656,0.0610352c0.0175781,0.015625,0.0341797,0.0327148,0.0507812,0.0498047
		c0.0224609,0.0219727,0.0439453,0.0454102,0.0634766,0.0688477c0.015625,0.0180664,0.0302734,0.0366211,0.0439453,0.0556641
		c0.0195312,0.0249023,0.0371094,0.0507812,0.0537109,0.0771484c0.0126953,0.0195312,0.0253906,0.0390625,0.0371094,0.059082
		c0.015625,0.0273438,0.0292969,0.0556641,0.0429688,0.0844727c0.0097656,0.0205078,0.0195312,0.0415039,0.0283203,0.0625
		c0.0126953,0.0302734,0.0224609,0.0615234,0.0332031,0.0927734c0.0068359,0.0205078,0.0146484,0.0405273,0.0195312,0.0615234
		c0.0097656,0.0351562,0.015625,0.0712891,0.0224609,0.1069336c0.0029297,0.019043,0.0078125,0.0371094,0.0097656,0.0556641
		c0.0078125,0.0546875,0.0117188,0.1098633,0.0117188,0.1665039V28.5219727z"/>
	<polygon class="st0" points="36.2885742,26.1342773 36.2885742,21.8657227 33.0981445,24 	"/>
</g>
</svg>
