<?xml version="1.0" encoding="utf-8"?>
<!-- Generator: Adobe Illustrator 16.0.0, SVG Export Plug-In . SVG Version: 6.00 Build 0)  -->
<!DOCTYPE svg PUBLIC "-//W3C//DTD SVG 1.1//EN" "http://www.w3.org/Graphics/SVG/1.1/DTD/svg11.dtd">
<svg version="1.1" id="Layer_1" xmlns="http://www.w3.org/2000/svg" xmlns:xlink="http://www.w3.org/1999/xlink" x="0px" y="0px"
	 width="48px" height="48px" viewBox="-0.0002441 -0.0002441 48 48" style="enable-background:new -0.0002441 -0.0002441 48 48;"
	 xml:space="preserve">
<g>
	<polygon points="11.7106934,21.8659668 11.7106934,26.1345215 14.9020996,23.9997559 	"/>
	<polygon points="22.7243652,18.767334 22.7243652,12.8190918 12.7321777,19.4802246 17.1960449,22.4665527 	"/>
	<polygon points="35.2683105,19.4802246 25.2751465,12.8190918 25.2751465,18.767334 30.8044434,22.4665527 	"/>
	<polygon points="12.7321777,28.5202637 22.7243652,35.1813965 22.7243652,29.2331543 17.1960449,25.5349121 	"/>
	<polygon points="25.2751465,29.2331543 25.2751465,35.1813965 35.2683105,28.5202637 30.8044434,25.5349121 	"/>
	<polygon points="23.9997559,20.9831543 19.4890137,23.9997559 23.9997559,27.017334 28.5114746,23.9997559 	"/>
	<path d="M23.9997559-0.0002441c-13.2539062,0-24,10.7451172-24,24c0,13.2558594,10.7460938,24,24,24
		c13.2558594,0,24-10.7441406,24-24C47.9997559,10.744873,37.2556152-0.0002441,23.9997559-0.0002441z M38.8395996,28.5222168
		c0,0.0556641-0.0039062,0.1113281-0.0117188,0.1669922c-0.0019531,0.0175781-0.0068359,0.0361328-0.0097656,0.0546875
		c-0.0068359,0.0351562-0.0126953,0.0712891-0.0224609,0.1064453c-0.0048828,0.0214844-0.0126953,0.0419922-0.0195312,0.0615234
		c-0.0107422,0.03125-0.0205078,0.0625-0.0332031,0.09375c-0.0087891,0.0214844-0.0185547,0.0419922-0.0283203,0.0615234
		c-0.0136719,0.0292969-0.0273438,0.0576172-0.0429688,0.0859375c-0.0117188,0.0195312-0.0244141,0.0390625-0.0371094,0.0585938
		c-0.0166016,0.0263672-0.0341797,0.0517578-0.0537109,0.0771484c-0.0136719,0.0195312-0.0283203,0.0371094-0.0439453,0.0546875
		c-0.0195312,0.0234375-0.0410156,0.046875-0.0634766,0.0693359c-0.0166016,0.0166016-0.0332031,0.0341797-0.0507812,0.0498047
		c-0.0224609,0.0205078-0.046875,0.0410156-0.0722656,0.0605469c-0.0185547,0.0146484-0.0371094,0.0302734-0.0576172,0.0439453
		c-0.0068359,0.0048828-0.0136719,0.0107422-0.0214844,0.015625l-13.5634766,9.0429688
		c-0.2138672,0.1425781-0.4609375,0.2148438-0.7080078,0.2148438c-0.2460938,0-0.4931641-0.0722656-0.7070312-0.2148438
		L9.7282715,29.5827637c-0.0068359-0.0048828-0.0136719-0.0107422-0.0205078-0.015625
		c-0.0205078-0.0136719-0.0390625-0.0292969-0.0576172-0.0439453c-0.0253906-0.0195312-0.0498047-0.0400391-0.0722656-0.0605469
		c-0.0175781-0.015625-0.0341797-0.0332031-0.0517578-0.0498047c-0.0214844-0.0224609-0.0429688-0.0458984-0.0634766-0.0693359
		c-0.0146484-0.0175781-0.0292969-0.0351562-0.0439453-0.0546875c-0.0185547-0.0253906-0.0361328-0.0507812-0.0527344-0.0771484
		c-0.0136719-0.0195312-0.0253906-0.0390625-0.0371094-0.0585938c-0.015625-0.0283203-0.0292969-0.0566406-0.0429688-0.0859375
		c-0.0097656-0.0195312-0.0195312-0.0400391-0.0283203-0.0615234c-0.0126953-0.03125-0.0234375-0.0625-0.0332031-0.09375
		c-0.0068359-0.0195312-0.0136719-0.0400391-0.0195312-0.0615234c-0.0097656-0.0351562-0.015625-0.0712891-0.0224609-0.1064453
		c-0.0029297-0.0185547-0.0078125-0.0371094-0.0107422-0.0546875c-0.0068359-0.0556641-0.0117188-0.1113281-0.0117188-0.1669922
		V19.479248c0-0.0566406,0.0048828-0.1123047,0.0117188-0.1669922c0.0029297-0.0185547,0.0078125-0.0361328,0.0107422-0.0556641
		c0.0068359-0.0351562,0.0126953-0.0712891,0.0224609-0.1064453c0.0058594-0.0214844,0.0126953-0.0410156,0.0195312-0.0615234
		c0.0097656-0.03125,0.0205078-0.0625,0.0332031-0.0927734c0.0087891-0.0214844,0.0185547-0.0419922,0.0283203-0.0625
		c0.0136719-0.0292969,0.0273438-0.0576172,0.0429688-0.0849609c0.0117188-0.0195312,0.0234375-0.0390625,0.0371094-0.0585938
		c0.0166016-0.0263672,0.0341797-0.0527344,0.0527344-0.0771484c0.0146484-0.0195312,0.0292969-0.0380859,0.0439453-0.0556641
		c0.0205078-0.0234375,0.0419922-0.046875,0.0634766-0.0693359c0.0175781-0.0166016,0.0341797-0.0341797,0.0517578-0.0498047
		c0.0224609-0.0205078,0.046875-0.0410156,0.0722656-0.0605469c0.0185547-0.0146484,0.0371094-0.0292969,0.0576172-0.0439453
		c0.0068359-0.0048828,0.0136719-0.0107422,0.0205078-0.015625l13.5644531-9.0429688
		c0.4287109-0.2851562,0.9863281-0.2851562,1.4150391,0l13.5634766,9.0429688
		c0.0078125,0.0048828,0.0146484,0.0107422,0.0214844,0.015625c0.0205078,0.0146484,0.0390625,0.0292969,0.0576172,0.0439453
		c0.0253906,0.0195312,0.0498047,0.0400391,0.0722656,0.0605469c0.0175781,0.015625,0.0341797,0.0332031,0.0507812,0.0498047
		c0.0224609,0.0224609,0.0439453,0.0458984,0.0634766,0.0693359c0.015625,0.0175781,0.0302734,0.0361328,0.0439453,0.0556641
		c0.0195312,0.0244141,0.0371094,0.0507812,0.0537109,0.0771484c0.0126953,0.0195312,0.0253906,0.0390625,0.0371094,0.0585938
		c0.015625,0.0273438,0.0292969,0.0556641,0.0429688,0.0849609c0.0097656,0.0205078,0.0195312,0.0410156,0.0283203,0.0625
		c0.0126953,0.0302734,0.0224609,0.0615234,0.0332031,0.0927734c0.0068359,0.0205078,0.0146484,0.0400391,0.0195312,0.0615234
		c0.0097656,0.0351562,0.015625,0.0712891,0.0224609,0.1064453c0.0029297,0.0195312,0.0078125,0.0371094,0.0097656,0.0556641
		c0.0078125,0.0546875,0.0117188,0.1103516,0.0117188,0.1669922V28.5222168z"/>
	<polygon points="36.2888184,26.1345215 36.2888184,21.8659668 33.0983887,23.9997559 	"/>
</g>
</svg>
