<?xml version="1.0" encoding="utf-8"?>
<!-- Generator: Adobe Illustrator 16.0.0, SVG Export Plug-In . SVG Version: 6.00 Build 0)  -->
<!DOCTYPE svg PUBLIC "-//W3C//DTD SVG 1.1//EN" "http://www.w3.org/Graphics/SVG/1.1/DTD/svg11.dtd">
<svg version="1.1" id="Layer_1" xmlns="http://www.w3.org/2000/svg" xmlns:xlink="http://www.w3.org/1999/xlink" x="0px" y="0px"
	 width="48px" height="48.6201172px" viewBox="0 0 48 48.6201172" style="enable-background:new 0 0 48 48.6201172;"
	 xml:space="preserve">
<style type="text/css">
<![CDATA[
	.st0{fill:#E3E3E3;}
	.st1{fill:#E9E9E9;}
	.st2{fill:#515151;}
	.st3{fill:#FFFFFF;}
	.st4{clip-path:url(#SVGID_2_);fill:#C8C8C8;}
	.st5{fill:#D5D5D5;}
]]>
</style>
<g>
	<path class="st0" d="M37.6611328,37.4697266c0,2.6035156-6.0322266,4.7148438-13.4726562,4.7148438
		c-7.4414062,0-13.4731445-2.1113281-13.4731445-4.7148438c0-2.6044922,6.0317383-4.7158203,13.4731445-4.7158203
		C31.6289062,32.7539062,37.6611328,34.8652344,37.6611328,37.4697266L37.6611328,37.4697266z M37.6611328,37.4697266"/>
	<g>
		<defs>
			<path id="SVGID_1_" d="M18.3920898,45.9091797c0.2993164,1.3984375,1.0371094,2.2246094,1.7607422,2.7109375l7.7084961-0.0087891
				c0.9326172-0.6337891,1.8857422-1.8330078,1.8857422-4.0966797v-5.8076172c0,0,0.1201172-1.4365234,1.4375-1.9150391
				c0,0,0.7773438-0.5390625-0.0605469-0.8378906c0,0-3.6513672-0.3007812-3.6513672,2.6933594v4.4296875
				c0,0,0.1445312,1.6328125-0.71875,2.3046875v-5.4667969c0,0,0.0605469-1.7363281,0.9580078-2.3945312
				c0,0,0.5986328-1.078125-0.7177734-0.7792969c0,0-2.5146484,0.359375-2.6342773,3.2929688l-0.0576172,5.6171875h-0.6044922
				l-0.0566406-5.6171875c-0.1196289-2.9335938-2.6342773-3.2929688-2.6342773-3.2929688
				c-1.3173828-0.2988281-0.7182617,0.7792969-0.7182617,0.7792969c0.8979492,0.6582031,0.9575195,2.3945312,0.9575195,2.3945312
				v5.5292969c-0.862793-0.6103516-0.7177734-2.3671875-0.7177734-2.3671875v-4.4296875
				c0-2.9941406-3.6518555-2.6933594-3.6518555-2.6933594c-0.8383789,0.2988281-0.0600586,0.8378906-0.0600586,0.8378906
				c1.3168945,0.4785156,1.4370117,1.9150391,1.4370117,1.9150391v4.0634766L18.3920898,45.9091797z"/>
		</defs>
		<clipPath id="SVGID_2_">
			<use xlink:href="#SVGID_1_"  style="overflow:visible;"/>
		</clipPath>
		<path class="st4" d="M37.6611328,37.4697266c0,2.6035156-6.0322266,4.7148438-13.4726562,4.7148438
			c-7.4414062,0-13.4731445-2.1113281-13.4731445-4.7148438c0-2.6044922,6.0317383-4.7158203,13.4731445-4.7158203
			C31.6289062,32.7539062,37.6611328,34.8652344,37.6611328,37.4697266L37.6611328,37.4697266z M37.6611328,37.4697266"/>
	</g>
	<path class="st0" d="M8.7983398,23.6044922l-0.3891602,1.3554688c0,0-0.1010742,0.4892578,0.3603516,0.5761719
		c0.4819336-0.0097656,0.4423828-0.4599609,0.4086914-0.6064453L8.7983398,23.6044922L8.7983398,23.6044922z M8.7983398,23.6044922"
		/>
	<path d="M47.9648438,17.9238281L48,17.7475586c-3.9521484-0.7905273-8.0078125-0.7983398-10.4619141-0.6962891
		c0.4033203-1.4521484,0.5244141-3.1235352,0.5244141-4.9868164c0-2.6728516-1.0039062-4.8105469-2.6337891-6.4375
		c0.2841797-0.9199219,0.6650391-2.9619141-0.3798828-5.5761719c0,0-1.8447266-0.5854492-6.015625,2.206543
		c-1.6347656-0.4086914-3.3730469-0.6098633-5.1152344-0.6098633c-1.9165039,0-3.8525391,0.2436523-5.6586914,0.7392578
		c-4.3051758-2.9375-6.2050781-2.3359375-6.2050781-2.3359375c-1.2407227,3.1020508-0.4736328,5.3989258-0.2407227,5.9692383
		C10.3554688,7.5932617,9.465332,9.6020508,9.465332,12.0644531c0,1.8588867,0.2119141,3.5268555,0.7290039,4.9765625
		C7.7197266,16.9506836,3.8115234,16.9853516,0,17.7475586l0.0356445,0.1762695
		c3.8339844-0.7670898,7.7661133-0.793457,10.2260742-0.7006836c0.1137695,0.300293,0.2407227,0.5913086,0.3828125,0.8725586
		c-2.4321289,0.078125-6.5849609,0.3881836-10.5649414,1.5112305l0.0488281,0.1723633
		c4.0112305-1.1313477,8.2001953-1.4331055,10.6088867-1.5068359c1.453125,2.7084961,4.3183594,4.4580078,9.4155273,5.0073242
		c-0.7236328,0.4863281-1.4614258,1.3129883-1.7607422,2.7114258c-0.9858398,0.4707031-4.1064453,1.6220703-5.9785156-1.5981445
		c0,0-1.0483398-1.9165039-3.0541992-2.0664062c0,0-1.9462891-0.0297852-0.1347656,1.2124023
		c0,0,1.3027344,0.6137695,2.2006836,2.9199219c0,0,1.171875,3.9326172,6.828125,2.6708984v4.0625
		c0,0-0.1201172,1.4365234-1.4370117,1.9160156c0,0-0.7783203,0.5390625,0.0600586,0.8378906
		c0,0,3.6518555,0.2998047,3.6518555-2.6933594v-4.4306641c0,0-0.1445312-1.7568359,0.7177734-2.3671875v7.2763672
		c0,0-0.0595703,1.7363281-0.9575195,2.3945312c0,0-0.5986328,1.0771484,0.7182617,0.7783203
		c0,0,2.5146484-0.359375,2.6342773-3.2929688l0.0571289-7.3632812h0.6040039l0.0576172,7.3632812
		c0.1196289,2.9335938,2.6342773,3.2929688,2.6342773,3.2929688c1.3164062,0.2988281,0.7177734-0.7783203,0.7177734-0.7783203
		c-0.8974609-0.6582031-0.9580078-2.3945312-0.9580078-2.3945312v-7.2138672
		c0.8632812,0.671875,0.71875,2.3046875,0.71875,2.3046875v4.4306641c0,2.9931641,3.6513672,2.6933594,3.6513672,2.6933594
		c0.8378906-0.2988281,0.0605469-0.8378906,0.0605469-0.8378906c-1.3173828-0.4794922-1.4375-1.9160156-1.4375-1.9160156v-5.8066406
		c0-2.2646484-0.953125-3.4638672-1.8857422-4.0966797c5.4355469-0.5390625,8.0439453-2.2944336,9.2460938-5.0214844
		c2.3808594,0.0654297,6.6660156,0.3554688,10.7646484,1.5117188l0.0488281-0.1723633
		c-4.0751953-1.1494141-8.3320312-1.4467773-10.7373047-1.5170898c0.1142578-0.2753906,0.2138672-0.5620117,0.3017578-0.8564453
		C39.9228516,17.1289062,43.9970703,17.1303711,47.9648438,17.9238281L47.9648438,17.9238281z M47.9648438,17.9238281"/>
	<path class="st5" d="M32.7460938,11.9384766c1.1708984,1.0605469,1.8554688,2.3413086,1.8554688,3.7216797
		c0,6.4433594-4.8037109,6.6176758-10.7280273,6.6176758c-5.925293,0-10.7285156-0.8920898-10.7285156-6.6176758
		c0-1.3710938,0.675293-2.644043,1.8320312-3.7001953c1.9287109-1.7607422,5.1933594-0.828125,8.8964844-0.828125
		C27.5625,11.1318359,30.8144531,10.1899414,32.7460938,11.9384766L32.7460938,11.9384766z M32.7460938,11.9384766"/>
	<path class="st3" d="M20.3061523,15.9882812c0,1.7749023-0.9995117,3.2133789-2.2324219,3.2133789
		c-1.2324219,0-2.2324219-1.4384766-2.2324219-3.2133789c0-1.7744141,1-3.2124023,2.2324219-3.2124023
		C19.3066406,12.7758789,20.3061523,14.2138672,20.3061523,15.9882812L20.3061523,15.9882812z M20.3061523,15.9882812"/>
	<path class="st2" d="M19.5898438,16.0288086c0,1.1831055-0.6669922,2.1416016-1.4882812,2.1416016
		c-0.8222656,0-1.4882812-0.9584961-1.4882812-2.1416016c0-1.1835938,0.6660156-2.1425781,1.4882812-2.1425781
		C18.9228516,13.8862305,19.5898438,14.8452148,19.5898438,16.0288086L19.5898438,16.0288086z M19.5898438,16.0288086"/>
	<path class="st3" d="M32.28125,15.9882812c0,1.7749023-0.9990234,3.2133789-2.2324219,3.2133789
		c-1.2324219,0-2.2314453-1.4384766-2.2314453-3.2133789c0-1.7744141,0.9990234-3.2124023,2.2314453-3.2124023
		C31.2822266,12.7758789,32.28125,14.2138672,32.28125,15.9882812L32.28125,15.9882812z M32.28125,15.9882812"/>
	<path class="st2" d="M31.5654297,16.0288086c0,1.1831055-0.6669922,2.1416016-1.4882812,2.1416016
		c-0.8222656,0-1.4882812-0.9584961-1.4882812-2.1416016c0-1.1835938,0.6660156-2.1425781,1.4882812-2.1425781
		C30.8984375,13.8862305,31.5654297,14.8452148,31.5654297,16.0288086L31.5654297,16.0288086z M31.5654297,16.0288086"/>
	<path class="st2" d="M24.4633789,18.8422852c0,0.3081055-0.25,0.5581055-0.5585938,0.5581055
		c-0.3081055,0-0.5581055-0.25-0.5581055-0.5581055c0-0.3085938,0.25-0.5585938,0.5581055-0.5585938
		C24.2133789,18.2836914,24.4633789,18.5336914,24.4633789,18.8422852L24.4633789,18.8422852z M24.4633789,18.8422852"/>
	<path class="st2" d="M22.6044922,20.253418c-0.0332031-0.09375,0.0161133-0.1958008,0.109375-0.2290039
		c0.0932617-0.0327148,0.1962891,0.0161133,0.2290039,0.109375c0.1435547,0.4057617,0.5283203,0.6777344,0.9575195,0.6777344
		s0.8134766-0.2719727,0.9580078-0.6777344c0.0322266-0.09375,0.1347656-0.1420898,0.2285156-0.109375
		c0.09375,0.0332031,0.1425781,0.1352539,0.109375,0.2290039c-0.1943359,0.5483398-0.715332,0.9169922-1.2958984,0.9169922
		C23.3193359,21.1704102,22.7988281,20.8017578,22.6044922,20.253418L22.6044922,20.253418z M22.6044922,20.253418"/>
	<path class="st1" d="M10.2280273,22.8056641c0,0.1494141-0.1748047,0.2695312-0.3896484,0.2695312
		s-0.3891602-0.1201172-0.3891602-0.2695312c0-0.1489258,0.1743164-0.2695312,0.3891602-0.2695312
		S10.2280273,22.6567383,10.2280273,22.8056641L10.2280273,22.8056641z M10.2280273,22.8056641"/>
	<path class="st1" d="M11.3056641,23.4042969c0,0.1489258-0.1748047,0.2700195-0.3891602,0.2700195
		c-0.2148438,0-0.3891602-0.1210938-0.3891602-0.2700195c0-0.1484375,0.1743164-0.269043,0.3891602-0.269043
		C11.1308594,23.1352539,11.3056641,23.2558594,11.3056641,23.4042969L11.3056641,23.4042969z M11.3056641,23.4042969"/>
	<path class="st1" d="M11.9643555,24.1831055c0,0.1484375-0.1743164,0.2695312-0.3896484,0.2695312
		c-0.2148438,0-0.3886719-0.1210938-0.3886719-0.2695312c0-0.1489258,0.1738281-0.2695312,0.3886719-0.2695312
		C11.7900391,23.9135742,11.9643555,24.0341797,11.9643555,24.1831055L11.9643555,24.1831055z M11.9643555,24.1831055"/>
	<path class="st1" d="M12.5629883,25.0810547c0,0.1494141-0.1743164,0.2695312-0.3891602,0.2695312
		s-0.3891602-0.1201172-0.3891602-0.2695312c0-0.1484375,0.1743164-0.2695312,0.3891602-0.2695312
		S12.5629883,24.9326172,12.5629883,25.0810547L12.5629883,25.0810547z M12.5629883,25.0810547"/>
	<path class="st1" d="M13.2216797,25.9199219c0,0.1484375-0.1743164,0.2685547-0.3891602,0.2685547
		s-0.3891602-0.1201172-0.3891602-0.2685547c0-0.1494141,0.1743164-0.2695312,0.3891602-0.2695312
		S13.2216797,25.7705078,13.2216797,25.9199219L13.2216797,25.9199219z M13.2216797,25.9199219"/>
	<path class="st1" d="M14.1201172,26.6376953c0,0.1494141-0.1743164,0.2695312-0.3896484,0.2695312
		c-0.2148438,0-0.3886719-0.1201172-0.3886719-0.2695312c0-0.1484375,0.1738281-0.2685547,0.3886719-0.2685547
		C13.9458008,26.3691406,14.1201172,26.4892578,14.1201172,26.6376953L14.1201172,26.6376953z M14.1201172,26.6376953"/>
	<path class="st1" d="M15.3774414,27.1171875c0,0.1484375-0.1743164,0.2695312-0.3891602,0.2695312
		s-0.3896484-0.1210938-0.3896484-0.2695312s0.1748047-0.2695312,0.3896484-0.2695312S15.3774414,26.96875,15.3774414,27.1171875
		L15.3774414,27.1171875z M15.3774414,27.1171875"/>
	<path class="st1" d="M16.6289062,27.1171875c0,0.1484375-0.1743164,0.2695312-0.3891602,0.2695312
		c-0.215332,0-0.3896484-0.1210938-0.3896484-0.2695312s0.1743164-0.2695312,0.3896484-0.2695312
		C16.4545898,26.8476562,16.6289062,26.96875,16.6289062,27.1171875L16.6289062,27.1171875z M16.6289062,27.1171875"/>
	<path class="st1" d="M17.8989258,26.9091797c0,0.1484375-0.1743164,0.2695312-0.3891602,0.2695312
		s-0.3891602-0.1210938-0.3891602-0.2695312c0-0.1494141,0.1743164-0.2705078,0.3891602-0.2705078
		S17.8989258,26.7597656,17.8989258,26.9091797L17.8989258,26.9091797z M17.8989258,26.9091797"/>
</g>
</svg>
