<?xml version="1.0" encoding="utf-8"?>
<!-- Generator: Adobe Illustrator 16.0.0, SVG Export Plug-In . SVG Version: 6.00 Build 0)  -->
<!DOCTYPE svg PUBLIC "-//W3C//DTD SVG 1.1//EN" "http://www.w3.org/Graphics/SVG/1.1/DTD/svg11.dtd">
<svg version="1.1" id="Layer_1" xmlns="http://www.w3.org/2000/svg" xmlns:xlink="http://www.w3.org/1999/xlink" x="0px" y="0px"
	 width="48px" height="48px" viewBox="282 372 48 48" style="enable-background:new 282 372 48 48;" xml:space="preserve">
<style type="text/css">
<![CDATA[
	.st0{fill:#E3E3E3;}
	.st1{fill:#838383;}
	.st2{fill:#B5B5B5;}
	.st3{fill:#B6B6B6;}
	.st4{fill:#F5F5F5;}
	.st5{fill:#5C5C5C;}
]]>
</style>
<g>
	<path class="st1" d="M326.0615234,378.6362305c2.1621094,0,3.9316406,1.7695312,3.9316406,3.9321289v1.1401367
		l-5.4628906,3.9023438l-18.5991211,12.8120117l-18.5991211-12.9418945v25.8833008h-1.3999023
		c-2.1625977,0-3.9321289-1.7695312-3.9321289-3.9326172v-26.8623047c0-2.1625977,1.7695312-3.9321289,3.9321289-3.9321289
		l19.9990234,14.8276367l20.1293945-14.8276367L326.0615234,378.6362305z"/>
	<polygon class="st0" points="287.3320312,387.480957 287.3320312,413.3642578 324.53125,413.3642578 324.53125,387.6108398 
		305.9311523,400.4228516 	"/>
	<polygon class="st3" points="287.3320312,413.3642578 305.9311523,400.4228516 305.847168,400.3632812 287.3320312,413.0791016 	
		"/>
	<polygon class="st2" points="324.53125,387.6108398 324.5419922,413.3642578 305.9311523,400.4228516 	"/>
	<path class="st5" d="M329.9931641,383.7084961L330,409.4345703c-0.09375,2.859375-1.3330078,3.8798828-5.4580078,3.9277344
		l-0.0107422-25.7524414l5.4638672-3.9023438L329.9931641,383.7084961z"/>
	<polygon class="st4" points="285.9321289,378.6362305 305.9311523,393.4638672 326.0615234,378.6362305 	"/>
</g>
</svg>
