<?xml version="1.0" encoding="utf-8"?>
<!-- Generator: Adobe Illustrator 16.0.0, SVG Export Plug-In . SVG Version: 6.00 Build 0)  -->
<!DOCTYPE svg PUBLIC "-//W3C//DTD SVG 1.1//EN" "http://www.w3.org/Graphics/SVG/1.1/DTD/svg11.dtd">
<svg version="1.1" id="Layer_1" xmlns="http://www.w3.org/2000/svg" xmlns:xlink="http://www.w3.org/1999/xlink" x="0px" y="0px"
	 width="48px" height="48px" viewBox="0 0 48 48" style="enable-background:new 0 0 48 48;" xml:space="preserve">
<style type="text/css">
<![CDATA[
	.st0{fill:#5F5F5F;}
	.st1{fill:#FFFFFF;}
]]>
</style>
<g>
	<g>
		<g>
			<path class="st0" d="M44.4443359,0H3.5429688C1.5878906,0,0,1.550293,0,3.4584961v41.0776367
				C0,46.4482422,1.5878906,48,3.5429688,48h40.9013672C46.4023438,48,48,46.4482422,48,44.5361328V3.4584961
				C48,1.550293,46.4023438,0,44.4443359,0z"/>
			<path class="st1" d="M7.1132812,17.996582h7.1225586v22.9057617H7.1132812V17.996582z M10.6748047,6.6083984
				c2.2763672,0,4.1259766,1.8500977,4.1259766,4.1269531c0,2.2792969-1.8496094,4.1293945-4.1259766,4.1293945
				c-2.2822266,0-4.1264648-1.8500977-4.1264648-4.1293945C6.5483398,8.4584961,8.3925781,6.6083984,10.6748047,6.6083984"/>
			<path class="st1" d="M18.7011719,17.996582H25.53125V21.125h0.0966797c0.9501953-1.800293,3.2734375-3.699707,6.7373047-3.699707
				c7.2041016,0,8.5341797,4.7431641,8.5341797,10.9135742v12.5634766h-7.1103516V29.7636719
				c0-2.6582031-0.0527344-6.0742188-3.7011719-6.0742188c-3.7050781,0-4.2695312,2.8935547-4.2695312,5.8818359v11.3310547
				h-7.1171875V17.996582z"/>
		</g>
	</g>
</g>
</svg>
