<?xml version="1.0" encoding="utf-8"?>
<!-- Generator: Adobe Illustrator 16.0.0, SVG Export Plug-In . SVG Version: 6.00 Build 0)  -->
<!DOCTYPE svg PUBLIC "-//W3C//DTD SVG 1.1//EN" "http://www.w3.org/Graphics/SVG/1.1/DTD/svg11.dtd">
<svg version="1.1" id="Layer_1" xmlns="http://www.w3.org/2000/svg" xmlns:xlink="http://www.w3.org/1999/xlink" x="0px" y="0px"
	 width="48px" height="48px" viewBox="0 -0.0002441 48 48" style="enable-background:new 0 -0.0002441 48 48;" xml:space="preserve"
	>
<style type="text/css">
<![CDATA[
	.st0{fill:#257BA1;}
]]>
</style>
<g>
	<g>
		<path class="st0" d="M3.4116211,23.9997559c0,8.1484375,4.7348633,15.1923828,11.6035156,18.5283203L5.1943359,15.6208496
			C4.0517578,18.1804199,3.4116211,21.0144043,3.4116211,23.9997559z"/>
		<path class="st0" d="M37.8984375,22.9606934c0-2.5449219-0.9150391-4.3066406-1.6982422-5.6777344
			c-1.0429688-1.6962891-2.0214844-3.1318359-2.0214844-4.8291016c0-1.8916016,1.4345703-3.6533203,3.4570312-3.6533203
			c0.0908203,0,0.1777344,0.0107422,0.2666016,0.0166016c-3.6630859-3.3564453-8.5429688-5.40625-13.902832-5.40625
			c-7.1928711,0-13.5205078,3.6914062-17.2021484,9.2802734c0.4833984,0.015625,0.9389648,0.0244141,1.3251953,0.0244141
			c2.152832,0,5.4873047-0.2617188,5.4873047-0.2617188c1.109375-0.0644531,1.2402344,1.5654297,0.1313477,1.6972656
			c0,0-1.1157227,0.1298828-2.355957,0.1953125l7.4970703,22.3017578l4.5058594-13.5126953l-3.2075195-8.7890625
			c-1.1088867-0.0654297-2.1591797-0.1953125-2.1591797-0.1953125c-1.1098633-0.0654297-0.9794922-1.7617188,0.1303711-1.6972656
			c0,0,3.3994141,0.2617188,5.4223633,0.2617188c2.1533203,0,5.4873047-0.2617188,5.4873047-0.2617188
			c1.1103516-0.0644531,1.2412109,1.5654297,0.1318359,1.6972656c0,0-1.1171875,0.1298828-2.3564453,0.1953125l7.4404297,22.1318359
			l2.0537109-6.8613281C37.2207031,26.7683105,37.8984375,24.7233887,37.8984375,22.9606934z"/>
		<path class="st0" d="M24.3608398,25.8005371l-6.1777344,17.9492188c1.8447266,0.5429688,3.7954102,0.8398438,5.8164062,0.8398438
			c2.3979492,0,4.6967773-0.4140625,6.8364258-1.1679688c-0.0537109-0.0878906-0.1054688-0.1816406-0.1474609-0.2832031
			L24.3608398,25.8005371z"/>
		<path class="st0" d="M42.0654297,14.1218262c0.0888672,0.65625,0.1386719,1.359375,0.1386719,2.1171875
			c0,2.0888672-0.390625,4.4375-1.5654297,7.3740234l-6.2880859,18.1816406
			c6.1201172-3.5683594,10.2363281-10.1992188,10.2363281-17.7949219
			C44.5869141,20.4196777,43.6728516,17.0544434,42.0654297,14.1218262z"/>
		<path class="st0" d="M23.9995117-0.0002441C10.765625-0.0002441,0,10.7663574,0,23.9997559
			c0,13.234375,10.765625,24,23.9995117,24S48,37.2341309,48,23.9997559C48,10.7663574,37.2333984-0.0002441,23.9995117-0.0002441z
			 M23.9995117,46.9001465c-12.6264648,0-22.8989258-10.2734375-22.8989258-22.9003906S11.3730469,1.1003418,23.9995117,1.1003418
			s22.8999023,10.2724609,22.8999023,22.8994141S36.6259766,46.9001465,23.9995117,46.9001465z"/>
	</g>
</g>
</svg>
