<?xml version="1.0" encoding="utf-8"?>
<!-- Generator: Adobe Illustrator 16.0.0, SVG Export Plug-In . SVG Version: 6.00 Build 0)  -->
<!DOCTYPE svg PUBLIC "-//W3C//DTD SVG 1.1//EN" "http://www.w3.org/Graphics/SVG/1.1/DTD/svg11.dtd">
<svg version="1.1" id="Layer_1" xmlns="http://www.w3.org/2000/svg" xmlns:xlink="http://www.w3.org/1999/xlink" x="0px" y="0px"
	 width="48px" height="48.1171875px" viewBox="0 0 48 48.1171875" style="enable-background:new 0 0 48 48.1171875;"
	 xml:space="preserve">
<style type="text/css">
<![CDATA[
	.st0{fill:#888888;}
]]>
</style>
<g>
	<path class="st0" d="M48,24.0117188c0,13.2509766-10.7373047,24.1054688-23.9882812,24.1054688
		C10.7373047,48.1171875,0,37.2626953,0,24.0117188C0,10.7368164,10.7373047,0,24.0117188,0
		C37.2626953,0,48,10.7368164,48,24.0117188z M30.0029297,43.6064453c8.2236328-2.9375,14.2382812-10.5253906,14.2382812-19.5947266
		c0-11.1835938-9.0693359-20.2529297-20.2294922-20.2529297c-11.1835938,0-20.2524414,9.0693359-20.2524414,20.2529297
		c0,9.1630859,6.1083984,16.7988281,14.4726562,19.5947266v-3.8535156c0-2.3027344,0.9633789-3.5244141,1.9267578-4.1816406
		c-5.2158203-0.5410156-10.8076172-2.4199219-10.8076172-11.4423828c0-2.5371094,0.8925781-4.6049805,2.3730469-6.2026367
		c-0.2348633-0.6108398-1.0102539-2.9604492,0.2348633-6.1318359c0,0,1.9501953-0.6342773,6.3671875,2.3725586
		c1.8325195-0.5166016,3.8295898-0.7753906,5.7797852-0.7753906c1.9731445,0,3.9467773,0.2587891,5.8032227,0.7753906
		c4.4169922-3.0068359,6.34375-2.3725586,6.34375-2.3725586c1.2685547,3.1713867,0.4697266,5.5209961,0.234375,6.1318359
		c1.4804688,1.5976562,2.3730469,3.6655273,2.3730469,6.2026367c0,9.0224609-5.5917969,10.9013672-10.8076172,11.4423828
		c0.9638672,0.6572266,1.9501953,1.8789062,1.9501953,4.1816406V43.6064453z"/>
</g>
</svg>
